<svg width="2920" height="475" viewBox="0 0 2920 475" fill="none" xmlns="http://www.w3.org/2000/svg">
<path d="M91.1214 328.757C141.446 328.757 182.243 287.961 182.243 237.636C182.243 187.311 141.446 146.515 91.1214 146.515C40.7964 146.515 0 187.311 0 237.636C0 287.961 40.7964 328.757 91.1214 328.757Z" fill="#FFC10E"/>
<path d="M327.722 392.369C323.272 438.55 284.377 474.651 237.036 474.651C186.714 474.651 145.914 433.851 145.914 383.53C145.914 337.803 179.614 299.943 223.519 293.402C224.678 293.236 225.837 293.071 227.017 292.947C227.493 292.905 227.969 292.843 228.445 292.802C262.911 289.014 291.042 264.215 299.736 231.488V231.468C299.757 231.385 299.777 231.302 299.798 231.219C300.233 229.563 300.73 227.928 301.289 226.313C311.183 197.437 338.569 176.695 370.799 176.695C411.371 176.695 444.263 209.588 444.263 250.16C444.263 283.093 422.59 310.956 392.741 320.291C391.81 320.581 390.878 320.85 389.926 321.099H389.905C389.574 321.181 389.243 321.264 388.912 321.368C388.891 321.368 388.891 321.368 388.87 321.388C358.027 329.648 334.222 355.171 328.509 386.987L327.722 392.369Z" fill="#FFC10E"/>
<path d="M482.227 198.885C515.186 198.885 541.905 172.167 541.905 139.207C541.905 106.248 515.186 79.5293 482.227 79.5293C449.268 79.5293 422.549 106.248 422.549 139.207C422.549 172.167 449.268 198.885 482.227 198.885Z" fill="#FFC10E"/>
<path d="M574.28 93.4398C600.083 93.4398 621 72.5226 621 46.7199C621 20.9172 600.083 0 574.28 0C548.477 0 527.56 20.9172 527.56 46.7199C527.56 72.5226 548.477 93.4398 574.28 93.4398Z" fill="#FFC10E"/>
<path d="M2352 474.825C2370.78 474.825 2386 459.603 2386 440.825C2386 422.048 2370.78 406.825 2352 406.825C2333.22 406.825 2318 422.048 2318 440.825C2318 459.603 2333.22 474.825 2352 474.825Z" fill="#FFC10E"/>
<path fill-rule="evenodd" clip-rule="evenodd" d="M880.5 101.857C860.929 103.92 845.094 111.664 831.869 125.642C823.081 134.93 818.753 141.938 814.933 153.064C800.737 194.419 821.86 238.835 862.1 252.242C883.917 259.511 909.003 257.214 928.9 246.126C937.407 241.385 950.008 229.191 955.47 220.415C957.896 216.515 961.336 209.05 963.113 203.825C965.898 195.637 966.404 192.599 966.776 181.825C967.133 171.476 966.84 167.783 965.073 160.365C960.074 139.385 947.374 122.198 928.989 111.532C915.829 103.897 896.926 100.126 880.5 101.857ZM654.667 104.492C654.3 104.858 654 138.608 654 179.492V253.825H667.5H681V222.325V190.825H716.5H752V222.325V253.825H765.5H779V178.825V103.825H765.5H752V134.825V165.825H716.5H681V134.825V103.825H668.167C661.108 103.825 655.033 104.125 654.667 104.492ZM985.902 123.575C989.659 134.437 1001.41 168.412 1012.02 199.075L1031.3 254.825L1042.9 254.811L1054.5 254.798L1072.5 201.906C1082.4 172.815 1090.75 149.171 1091.06 149.362C1091.37 149.554 1099.7 173.359 1109.56 202.263L1127.5 254.815L1139.04 254.82L1150.58 254.825L1176.29 180.48C1190.43 139.591 1202 105.603 1202 104.952C1202 104.085 1198.35 103.843 1188.36 104.047L1174.72 104.325L1157.36 158.325C1147.81 188.025 1139.84 212.775 1139.65 213.325C1139.46 213.875 1131.05 189.463 1120.96 159.075L1102.61 103.825H1091.35H1080.09L1061.88 158.828C1051.87 189.079 1043.53 213.691 1043.36 213.521C1043.19 213.351 1036.05 191.412 1027.49 164.768C1018.93 138.124 1011 113.513 1009.88 110.075L1007.84 103.825H993.454H979.07L985.902 123.575ZM905.249 128.713C925.737 135.854 939 155.485 939 178.67C939 188.729 937.591 195.625 933.963 203.325C928.22 215.511 918.222 224.772 906.216 229.025C898.992 231.584 886.269 232.441 878.737 230.876C860.352 227.055 844.401 211.195 839.932 192.294C838.172 184.851 838.432 170.296 840.451 163.305C844.641 148.791 853.716 137.538 866.186 131.393C870.209 129.411 875.525 127.366 878 126.85C884.7 125.452 898.625 126.404 905.249 128.713ZM1732.5 320.785C1721.15 323.784 1714.35 326.702 1706.57 331.905C1682.66 347.9 1669.31 376.881 1672.91 404.98C1677.18 438.238 1698.01 462.109 1730.5 470.96C1741.72 474.016 1762.05 474.019 1773.38 470.965C1800.93 463.537 1821.5 443.365 1829.14 416.268C1832.08 405.846 1832.31 386.639 1829.61 376.825C1821.49 347.282 1799.67 326.525 1770.14 320.268C1760.51 318.226 1741.18 318.492 1732.5 320.785ZM2203 320.316C2193.57 322.449 2183.19 327.92 2177.18 333.927C2168.25 342.864 2164.33 354.156 2165.28 368.285C2166.07 379.972 2168.31 385.125 2176 392.896C2183.28 400.253 2190.24 403.713 2207.12 408.36C2236.49 416.439 2242.1 419.072 2244.08 425.709C2247.21 436.128 2238.06 443.872 2222.7 443.809C2211.33 443.762 2194.8 437.686 2184.15 429.645C2179.66 426.259 2178.58 425.825 2177.48 426.965C2176.76 427.714 2172.28 433.011 2167.53 438.739L2158.88 449.153L2161.69 451.481C2171.17 459.331 2184.35 466.185 2197.07 469.872C2207.67 472.947 2228.95 473.706 2239.39 471.382C2264.7 465.753 2279.65 446.791 2277.69 422.824C2276.31 405.979 2267.23 394.655 2249.24 387.343C2245.91 385.989 2236.05 382.829 2227.34 380.32C2203.26 373.384 2198 370.076 2198 361.871C2198 353.225 2204.52 348.882 2217.57 348.847C2229 348.816 2240.12 352.583 2252.2 360.578C2254.31 361.975 2256.2 362.939 2256.38 362.721C2258.04 360.804 2273 338.554 2272.99 338.021C2272.98 337.113 2262.93 330.739 2256.31 327.438C2241.72 320.168 2217.79 316.971 2203 320.316ZM2486.92 320.835C2471.83 324.548 2460.65 331.116 2449.99 342.52C2442.47 350.564 2437.76 358.081 2434.27 367.583C2423.26 397.572 2430.12 430.222 2451.97 451.825C2463.88 463.603 2477.22 470.192 2494.54 472.843C2510.12 475.228 2531.35 471.705 2544 464.634C2549.95 461.309 2560.01 453.626 2563.96 449.388L2566.42 446.754L2557.77 438.113L2549.13 429.472L2545.1 433.117C2534.03 443.116 2523.2 447.881 2509.9 448.595C2494.22 449.436 2483.49 445.462 2472.92 434.902C2452 413.988 2451.77 377.883 2472.43 357.26C2491.05 338.666 2517.99 338.286 2541.77 356.284C2549.08 361.81 2547.86 362.269 2558.19 350.104L2565.4 341.604L2561.95 338.677C2550.44 328.918 2538.92 323.096 2525.79 320.405C2515.15 318.224 2496.7 318.428 2486.92 320.835ZM2645.07 319.912C2629.63 322.943 2617.02 329.738 2605.42 341.285C2597.74 348.919 2595.6 351.802 2591.66 359.825C2585.26 372.821 2583 382.351 2583 396.325C2583 413.949 2587.55 428.441 2597.45 442.314C2626.01 482.329 2689.77 484.237 2721.49 446.027C2740.73 422.85 2744.79 388.911 2731.63 361.325C2721.9 340.948 2703.52 326.26 2681 320.872C2671.91 318.698 2653.74 318.213 2645.07 319.912ZM999.211 324.575C996.902 329.962 940.464 462.564 938.336 467.6L936.953 470.872L954.069 470.6L971.184 470.325L977.797 454.075L984.41 437.825H1016.08H1047.75L1053.97 453.163C1057.38 461.598 1060.51 469.035 1060.92 469.688C1061.45 470.547 1066.37 470.799 1078.74 470.6L1095.83 470.325L1076.88 425.825C1066.46 401.35 1052.04 367.488 1044.84 350.575L1031.75 319.825H1016.5H1001.25L999.211 324.575ZM655 395.825V470.825H671.5H688V441.825V412.825H724H760V397.825V382.825H724H688V367.325V351.825H728.5H769V336.325V320.825H712H655V395.825ZM795 395.748V470.825H812H829V446.825V422.825H841.49H853.98L870 446.825L886.02 470.825H905.558H925.095L916.68 458.575C893.993 425.548 889.721 419.25 889.38 418.325C889.177 417.775 891.724 416.024 895.039 414.434C912.899 405.868 922.661 385.763 919.871 363.288C917.427 343.603 906.532 330.759 886.657 324.135L878.5 321.416L836.75 321.043L795 320.671V395.748ZM1119 395.825V470.825H1134.99H1150.98L1151.24 422.678L1151.5 374.531L1172 405.673C1183.27 422.801 1192.95 436.79 1193.5 436.762C1194.05 436.733 1203.48 422.981 1214.45 406.202C1225.43 389.422 1234.76 375.471 1235.2 375.2C1235.64 374.929 1236 396.335 1236 422.767V470.825H1252.5H1269V395.825V320.825H1251.05H1233.1L1213.41 352.459L1193.71 384.093L1191.61 380.641C1190.45 378.742 1181.62 364.511 1172 349.016L1154.5 320.842L1136.75 320.834L1119 320.825V395.825ZM1304.68 321.483C1304.3 321.855 1304 355.608 1304 396.492V470.825H1361.53H1419.05L1418.78 456.075L1418.5 441.325L1377.75 441.064L1337 440.803V425.814V410.825H1372.5H1408V395.825V380.825H1372.5H1337V365.836V350.848L1377.25 350.586L1417.5 350.325V335.825V321.325L1361.43 321.067C1330.58 320.925 1305.05 321.112 1304.68 321.483ZM1436.47 322.575C1437.02 323.972 1466.38 410.35 1483.72 461.601L1487.19 471.877L1501.79 471.601L1516.38 471.325L1533.05 422.961L1549.71 374.596L1553.71 385.961C1555.92 392.211 1563.48 414.088 1570.51 434.575L1583.3 471.825L1597.9 471.816L1612.5 471.806L1637.77 397.066C1651.67 355.958 1663.03 321.977 1663.02 321.551C1663.01 321.126 1655.28 320.901 1645.84 321.051L1628.67 321.325L1613.59 370.518C1605.29 397.574 1598.25 419.949 1597.94 420.241C1597.64 420.532 1590.01 398.272 1580.99 370.772L1564.6 320.774L1550.16 321.049L1535.71 321.325L1519.26 371.277C1509.14 401.987 1502.52 420.67 1502.06 419.777C1501.66 418.979 1494.63 396.388 1486.45 369.575L1471.58 320.825H1453.68C1437.04 320.825 1435.83 320.948 1436.47 322.575ZM1861 395.757V470.825H1877.5H1894V446.825V422.825L1906.75 422.856L1919.5 422.887L1935.44 446.856L1951.38 470.825H1970.69C1981.31 470.825 1990 470.674 1990 470.489C1990 470.304 1981.92 458.317 1972.04 443.852L1954.07 417.55L1959.79 414.846C1977.13 406.635 1986.95 388.61 1985.67 367.325C1984.29 344.373 1972.33 329.834 1949.33 323.146C1944.38 321.707 1937.27 321.394 1902.25 321.069L1861 320.687V395.757ZM2015.69 321.468C2015.31 321.848 2015 355.608 2015 396.492V470.825H2032H2049V447.553V424.282L2057.4 415.928L2065.79 407.575L2072.15 416.311C2075.64 421.116 2085.94 435.235 2095.04 447.686L2111.58 470.325L2131.78 470.596L2151.99 470.866L2131.82 443.596C2120.74 428.597 2106.57 409.453 2100.33 401.053C2094.1 392.653 2089 385.321 2089 384.759C2089 384.196 2101.04 371.249 2115.75 355.987C2130.46 340.725 2144.05 326.57 2145.95 324.531L2149.39 320.825L2128.95 320.882L2108.5 320.939L2079 353.058L2049.5 385.176L2049 353.25L2048.5 321.325L2032.44 321.051C2023.61 320.901 2016.07 321.088 2015.69 321.468ZM2771 395.798V470.825H2783.99H2796.98L2797.24 418.075L2797.5 365.325L2820.43 399.6C2833.04 418.451 2843.84 433.725 2844.43 433.543C2845.02 433.361 2855.85 417.786 2868.5 398.934L2891.5 364.656L2891.76 417.741L2892.02 470.825H2905.51H2919.01L2918.76 396.075L2918.5 321.325L2904.37 321.048L2890.24 320.772L2867.87 355.746C2855.57 374.982 2845.14 390.623 2844.7 390.505C2844.26 390.387 2833.9 374.773 2821.69 355.808L2799.49 321.325L2785.24 321.048L2771 320.77V395.798ZM2677.25 345.721C2683.85 348.013 2692.07 353.207 2696.69 358.012C2701.48 362.996 2706.83 372.498 2709.16 380.151C2711.99 389.447 2711.44 407.36 2708.04 416.165C2702.86 429.592 2691.68 441.145 2679.32 445.837C2672.1 448.58 2658.72 449.535 2650.74 447.876C2632.48 444.082 2617.48 429.278 2612.49 410.122C2610.61 402.895 2610.59 387.962 2612.45 380.956C2617.31 362.694 2631.81 348.251 2649.26 344.273C2657.25 342.451 2669.69 343.095 2677.25 345.721ZM1765.62 351.357C1772.42 353.281 1782.25 359.957 1786.52 365.559C1810.83 397.397 1790.28 442.982 1751.7 442.801C1723.94 442.67 1703.39 417.044 1707.83 388.075C1710.17 372.803 1718.71 360.549 1731.38 354.286C1742.66 348.71 1753.11 347.816 1765.62 351.357ZM869.114 351.832C875.501 353.026 881.624 357.018 884.424 361.812C885.946 364.417 886.444 367.055 886.444 372.501C886.444 378.91 886.106 380.214 883.463 383.974C881.67 386.525 878.505 389.234 875.521 390.77C870.749 393.228 869.772 393.338 849.78 393.662L829 394.001V372.412V350.825H846.364C855.913 350.825 866.151 351.278 869.114 351.832ZM1941.5 354.325C1948.94 358.14 1952 363.272 1952 371.917C1952 381.357 1948.81 386.695 1940.5 391.156C1936.84 393.121 1934.7 393.332 1915.25 393.65L1894 393.997V372.31V350.623L1914.82 350.974L1935.65 351.325L1941.5 354.325ZM1035 407.06C1035 407.481 1026.45 407.825 1016 407.825C1005.55 407.825 997 407.564 997 407.246C997 406.596 1014.92 362.809 1015.73 361.465C1016.2 360.696 1035 405.188 1035 407.06Z" fill="black"/>
</svg>
